<?xml version="1.0" standalone="no"?>
<!DOCTYPE svg PUBLIC "-//W3C//DTD SVG 20010904//EN"
 "http://www.w3.org/TR/2001/REC-SVG-20010904/DTD/svg10.dtd">
<svg version="1.0" xmlns="http://www.w3.org/2000/svg"
 width="292.000000pt" height="292.000000pt" viewBox="0 0 292.000000 292.000000"
 preserveAspectRatio="xMidYMid meet">
<metadata>
Created by potrace 1.14, written by Peter Selinger 2001-2017
</metadata>
<g transform="translate(0.000000,292.000000) scale(0.100000,-0.100000)"
fill="#000000" stroke="none">
<path d="M1365 2813 c2 -60 -2 -113 -7 -119 -6 -9 4 -13 38 -16 25 -2 48 0 51
5 2 4 1 7 -4 6 -31 -5 -33 3 -33 111 l0 110 30 0 c84 0 117 -139 49 -202 -33
-32 -18 -37 24 -10 42 28 56 53 57 100 0 81 -52 122 -153 122 l-54 0 2 -107z"/>
<path d="M1794 2872 c7 -12 -51 -204 -65 -212 -7 -5 13 -15 47 -24 33 -9 69
-21 81 -26 18 -7 25 -5 33 10 16 30 13 45 -6 29 -22 -18 -60 -22 -84 -9 -18 9
-18 13 -5 56 7 25 15 48 18 50 2 2 18 -1 35 -7 20 -7 32 -18 34 -32 2 -17 6
-14 15 15 10 34 9 37 -5 29 -20 -11 -72 7 -72 25 0 8 7 30 15 50 14 35 14 35
44 20 16 -9 33 -26 37 -38 7 -22 7 -22 15 -3 4 11 8 23 8 27 1 6 -122 48 -141
48 -5 0 -7 -4 -4 -8z"/>
<path d="M664 2685 c-38 -24 -63 -45 -56 -45 15 0 122 -163 122 -185 0 -11 21
-1 70 31 39 26 70 50 70 54 0 3 -7 15 -15 26 -14 19 -14 19 -15 -2 0 -26 -36
-74 -55 -74 -13 0 -65 66 -65 82 0 4 14 15 31 23 25 14 33 14 47 3 12 -10 12
-6 -3 19 -17 29 -20 31 -29 15 -12 -21 -37 -41 -53 -42 -6 0 -21 17 -33 37
l-22 37 23 19 c22 18 30 18 74 2 11 -4 15 -3 9 2 -6 4 -15 16 -20 26 -9 16
-16 13 -80 -28z"/>
<path d="M2185 2720 c7 -12 -100 -187 -118 -193 -10 -3 94 -80 126 -93 8 -3
22 7 32 22 17 26 17 27 -1 19 -27 -11 -64 -7 -91 10 l-23 15 58 90 c31 49 62
91 68 92 6 2 -4 13 -23 25 -19 13 -31 18 -28 13z"/>
<path d="M410 2487 c0 -7 -28 -42 -62 -78 l-63 -66 23 -24 24 -24 -5 32 c-3
18 1 39 8 49 11 16 17 14 71 -32 32 -27 67 -56 77 -64 10 -8 22 -23 26 -32 5
-15 10 -12 34 17 16 20 21 32 12 29 -20 -8 -176 123 -168 142 7 18 38 27 65
18 20 -6 19 -4 -5 20 -29 29 -37 32 -37 13z"/>
<path d="M2534 2433 c7 -13 3 -18 -79 -88 -71 -61 -82 -68 -97 -59 -6 4 1 -9
16 -29 25 -33 46 -51 32 -28 -6 9 122 128 157 148 18 9 17 12 -8 39 -15 16
-24 24 -21 17z"/>
<path d="M2617 2118 c-41 -20 -67 -62 -67 -105 0 -29 27 -94 53 -127 14 -19
16 -19 40 -3 15 9 33 17 41 17 12 0 11 7 -5 40 -22 46 -26 49 -25 18 1 -16 -7
-25 -27 -32 -24 -9 -31 -7 -44 9 -43 58 39 165 127 165 33 0 69 -29 71 -57 2
-32 -3 -58 -12 -67 -17 -18 -9 -26 16 -14 31 14 31 31 3 88 -41 79 -102 104
-171 68z"/>
<path d="M131 2068 c-6 -17 -8 -29 -5 -26 10 10 200 -76 206 -93 2 -6 11 6 21
26 10 20 13 34 8 30 -9 -5 -121 40 -188 76 l-31 18 -11 -31z"/>
<path d="M974 1959 c-81 -23 -108 -124 -60 -223 32 -66 110 -139 169 -158 43
-15 93 -16 137 -4 22 6 34 -1 82 -47 46 -45 54 -57 45 -72 -7 -13 -6 -21 4
-29 52 -41 58 -32 -174 -264 l-217 -218 35 -34 36 -35 216 218 c118 120 218
216 222 212 3 -3 101 -101 218 -217 l212 -212 31 29 c16 16 30 33 30 38 0 6
-93 104 -207 219 -115 115 -209 212 -210 216 -2 4 8 20 22 36 27 32 30 42 15
51 -6 4 15 32 47 63 56 55 59 57 88 46 138 -54 336 114 323 273 -16 191 -299
136 -378 -73 -23 -64 -25 -93 -7 -137 13 -32 13 -33 -44 -89 -36 -36 -60 -53
-66 -47 -11 11 -43 2 -43 -12 0 -4 -9 -13 -21 -20 -18 -9 -26 -7 -50 17 -20
19 -32 25 -40 17 -7 -7 -27 7 -67 46 l-57 56 13 40 c51 152 -148 358 -304 314z
m135 -48 c83 -43 143 -131 145 -213 1 -39 -4 -53 -26 -74 -71 -71 -230 -1
-287 126 -23 51 -27 117 -7 142 35 47 105 54 175 19z m849 15 c28 -9 52 -55
52 -99 0 -70 -75 -174 -155 -215 -98 -50 -198 10 -180 107 26 137 172 244 283
207z m-522 -505 c-10 -15 -22 -14 -41 5 -12 13 -13 19 -4 31 11 12 15 11 32
-5 11 -11 16 -25 13 -31z m95 5 c-16 -16 -23 -18 -33 -8 -18 18 19 57 39 40
12 -10 11 -15 -6 -32z m-56 -55 c-14 -14 -17 -14 -25 -1 -13 21 8 44 27 28 12
-10 12 -14 -2 -27z m-42 -25 c3 -8 -73 -93 -197 -220 -112 -113 -206 -206
-208 -206 -3 0 -9 7 -12 17 -5 12 46 69 196 220 111 111 205 203 209 203 4 0
9 -6 12 -14z m285 -192 c126 -130 199 -211 195 -220 -3 -8 -9 -14 -13 -14 -4
0 -98 92 -208 206 -131 133 -199 210 -195 220 3 7 8 14 13 14 4 0 97 -93 208
-206z"/>
<path d="M2830 1750 c-19 -4 -60 -11 -89 -14 -30 -4 -57 -9 -59 -11 -3 -2 -12
0 -21 5 -15 7 -17 4 -13 -21 4 -29 5 -29 55 -23 28 3 54 7 58 10 10 5 15 -13
18 -64 2 -28 -2 -44 -11 -46 -31 -11 -87 -13 -96 -4 -6 6 -7 -2 -3 -24 5 -21
13 -32 22 -30 74 18 202 32 212 23 10 -7 12 0 9 30 -3 28 -8 37 -16 31 -6 -5
-32 -12 -57 -15 l-45 -6 -3 46 c-1 26 -4 50 -6 54 -6 9 82 22 95 14 6 -4 10 5
8 24 -2 33 -4 33 -58 21z"/>
<path d="M34 1715 c-16 -16 -24 -36 -24 -59 0 -19 -2 -41 -5 -48 -4 -11 18
-17 102 -26 80 -9 111 -16 121 -29 11 -15 12 -15 12 4 0 11 3 36 6 54 6 30 5
32 -7 16 -11 -14 -23 -16 -61 -11 -41 6 -48 10 -48 29 0 26 16 42 45 46 30 4
65 -10 65 -27 0 -8 4 -14 9 -14 5 0 8 8 6 18 -2 9 -4 20 -4 25 -1 4 -10 16
-21 27 -28 28 -64 25 -89 -6 -19 -24 -20 -24 -30 -6 -17 31 -50 34 -77 7z m63
-33 c6 -4 13 -16 15 -27 3 -18 -2 -20 -41 -18 -51 2 -55 5 -46 32 6 21 47 29
72 13z"/>
<path d="M2869 1346 c22 -24 28 -62 10 -68 -24 -8 -200 27 -209 42 -7 11 -10
5 -10 -22 0 -20 -3 -45 -6 -55 -5 -17 -5 -17 6 0 8 13 20 17 38 13 15 -3 50
-8 77 -11 76 -8 105 -16 105 -26 0 -23 -22 -49 -41 -49 -11 0 -18 -4 -15 -8 6
-10 67 -15 64 -5 -4 15 13 143 21 167 8 21 6 24 -26 34 l-35 11 21 -23z"/>
<path d="M320 971 c0 -10 -90 -46 -107 -43 -7 2 -13 -2 -13 -8 0 -5 4 -10 10
-10 5 0 -3 -20 -18 -45 -15 -24 -32 -43 -38 -40 -8 2 -6 -10 4 -34 l16 -38 14
26 c41 79 69 111 112 130 33 15 48 17 58 8 9 -7 7 2 -4 26 -16 34 -34 49 -34
28z"/>
<path d="M90 943 c1 -4 7 -19 14 -32 10 -19 14 -20 19 -8 4 11 15 14 36 12 17
-2 31 0 31 5 0 6 -14 10 -31 10 -17 0 -39 5 -50 10 -10 6 -19 7 -19 3z"/>
<path d="M450 724 c0 -22 -6 -59 -14 -84 -11 -40 -17 -45 -44 -48 -18 -2 -38
-12 -46 -24 -13 -18 -13 -24 -1 -47 18 -33 88 -112 80 -90 -4 12 18 37 75 88
71 62 84 70 98 59 9 -7 3 4 -13 26 -16 21 -31 33 -33 26 -2 -6 -21 -27 -41
-45 -51 -47 -65 -32 -40 40 24 68 24 81 -1 112 l-20 26 0 -39z m-1 -168 c16
-19 -54 -82 -74 -66 -17 14 -8 47 18 65 27 19 41 19 56 1z"/>
<path d="M2365 651 c-16 -19 -24 -31 -17 -27 12 7 46 -18 154 -113 15 -13 25
-29 21 -35 -3 -6 6 0 20 13 29 27 34 41 15 41 -7 0 -31 16 -53 36 -22 20 -54
47 -72 61 -17 13 -33 32 -35 42 -2 13 -9 9 -33 -18z"/>
<path d="M2170 470 c-24 -19 -24 -20 -4 -20 16 0 33 -19 62 -67 23 -37 40 -68
38 -70 -1 -2 -54 15 -117 36 -63 22 -115 36 -117 32 -2 -5 22 -48 53 -95 40
-61 54 -92 50 -106 -6 -19 -6 -19 24 -2 27 15 28 18 11 24 -18 7 -96 115 -88
123 1 2 48 -12 102 -31 l100 -34 30 20 c31 19 31 20 6 20 -20 0 -34 15 -73 77
-29 45 -47 84 -44 95 6 23 -2 23 -33 -2z"/>
<path d="M702 460 c-17 -27 -15 -31 11 -21 27 10 53 7 72 -9 20 -17 19 -24
-10 -70 l-25 -40 -31 22 c-21 16 -29 28 -25 43 4 17 2 16 -14 -5 -21 -27 -26
-45 -10 -35 9 5 25 -1 58 -23 12 -8 11 -14 -1 -39 -27 -51 -40 -56 -71 -28
-16 15 -25 32 -22 40 8 21 -11 18 -23 -3 -8 -15 0 -24 52 -58 l61 -41 16 28
c55 97 106 168 119 164 11 -5 12 -3 1 10 -7 8 -17 15 -21 15 -5 0 -32 16 -60
35 -28 19 -54 35 -58 35 -3 0 -12 -9 -19 -20z"/>
<path d="M1019 195 c-38 -52 -77 -95 -86 -95 -22 0 -14 -6 20 -14 22 -5 27 -3
27 13 0 10 20 46 45 80 41 56 58 73 53 54 -1 -5 2 -39 7 -78 5 -38 8 -79 8
-90 -1 -15 8 -23 32 -31 30 -9 33 -9 25 5 -4 9 -11 36 -15 61 -3 25 -8 54 -10
65 -2 11 -6 44 -10 73 -4 28 -11 52 -16 52 -5 0 -41 -43 -80 -95z"/>
<path d="M1360 210 l0 -29 25 25 c19 19 34 24 58 22 31 -3 32 -4 33 -55 1 -51
1 -52 -30 -51 -17 0 -38 7 -46 14 -14 11 -16 9 -15 -21 0 -31 1 -32 17 -19 9
9 29 14 45 12 26 -3 28 -6 28 -48 0 -43 -1 -45 -32 -48 -23 -2 -35 3 -46 18
-15 22 -24 18 -23 -10 1 -12 18 -15 86 -17 47 -1 79 0 73 3 -9 4 -13 37 -13
114 0 77 4 110 13 113 6 3 -30 6 -80 6 l-93 1 0 -30z"/>
</g>
</svg>
